<?xml version="1.0" encoding="utf-8"?>
<!-- Generator: Adobe Illustrator 23.0.1, SVG Export Plug-In . SVG Version: 6.00 Build 0)  -->
<svg version="1.1" id="Layer_1" xmlns="http://www.w3.org/2000/svg" xmlns:xlink="http://www.w3.org/1999/xlink" x="0px" y="0px"
	 viewBox="0 0 653 409" style="enable-background:new 0 0 653 409;" xml:space="preserve">
<style type="text/css">
	.st0{fill:#FFFFFF;}
	.st1{fill-rule:evenodd;clip-rule:evenodd;fill:#FFFFFF;}
</style>
<polygon class="st0" points="70.8,281.2 41.6,281.2 41.6,356.1 33.5,356.1 33.5,281.2 4.2,281.2 4.2,274 70.8,274 "/>
<path class="st0" d="M132.1,356.1h-7.9v-33.4c0-6.8-1.2-11.8-3.6-15.2s-5.8-5.1-10.3-5.1c-2.9,0-5.8,0.8-8.7,2.2
	c-2.9,1.5-5.4,3.5-7.6,6.1c-2.2,2.5-3.8,5.5-4.7,8.8v36.7h-7.9v-84.4h7.9v38.1c2.4-4.5,5.7-8,10-10.6s8.9-4,13.7-4
	c3.5,0,6.4,0.6,8.9,1.8c2.4,1.2,4.4,3,5.9,5.4c1.5,2.3,2.6,5,3.3,8.1s1,6.6,1,10.5V356.1L132.1,356.1z"/>
<path class="st0" d="M152.7,323.3h44.5c-0.3-4.4-1.5-8.2-3.5-11.5s-4.7-5.9-8-7.7c-3.3-1.9-6.9-2.8-10.8-2.8s-7.5,0.9-10.8,2.8
	c-3.2,1.9-5.9,4.5-7.9,7.8C154.2,315.2,153,319,152.7,323.3 M174.9,357.3c-4.3,0-8.3-0.8-12-2.5c-3.7-1.6-6.9-3.9-9.6-6.8
	c-2.7-2.9-4.8-6.2-6.3-10s-2.3-7.8-2.3-12.1c0-5.6,1.3-10.7,3.9-15.4s6.1-8.4,10.7-11.2c4.6-2.8,9.7-4.2,15.5-4.2
	c5.9,0,11.1,1.4,15.6,4.2c4.4,2.8,7.9,6.6,10.5,11.2c2.5,4.6,3.8,9.7,3.8,15.2c0,0.6,0,1.2,0,1.8c0,0.6,0,1-0.1,1.3H153
	c0.4,4.3,1.6,8.1,3.6,11.5c2,3.3,4.7,6,8,7.9c3.3,2,6.8,2.9,10.7,2.9s7.6-1,11.2-3c3.5-2,6-4.6,7.3-7.9l6.8,1.9
	c-1.2,2.9-3.1,5.4-5.7,7.8c-2.5,2.3-5.5,4.1-9,5.4C182.6,356.7,178.9,357.3,174.9,357.3z"/>
<path class="st0" d="M291.6,315c0-5.3-1-10-2.9-14s-4.7-7.2-8.3-9.5c-3.6-2.3-8-3.4-13.2-3.4h-13.9v54.1h13.9
	c5.2,0,9.7-1.2,13.3-3.5s6.4-5.6,8.3-9.7C290.6,324.8,291.6,320.1,291.6,315 M237.3,356.1V274h29.8c8.9,0,16.4,1.8,22.4,5.5
	s10.5,8.6,13.5,14.8c3,6.2,4.5,13.1,4.5,20.6c0,8.3-1.7,15.6-5,21.7c-3.3,6.2-8,11-14,14.3c-6,3.4-13.2,5.1-21.5,5.1L237.3,356.1
	L237.3,356.1z"/>
<path class="st0" d="M330.9,321.3h31.7c-0.3-3-1.2-5.6-2.6-7.9c-1.4-2.2-3.3-4-5.6-5.2c-2.3-1.3-4.9-1.9-7.8-1.9
	c-2.8,0-5.3,0.6-7.6,1.9c-2.3,1.2-4.1,3-5.5,5.2C332.1,315.7,331.2,318.3,330.9,321.3 M346.8,357.3c-4.9,0-9.3-0.8-13.2-2.5
	s-7.3-3.9-10.1-6.8c-2.8-2.9-4.9-6.1-6.4-9.8c-1.5-3.7-2.3-7.6-2.3-11.7c0-5.7,1.3-11,3.9-15.7s6.3-8.5,11.1-11.4
	c4.8-2.9,10.5-4.3,17.1-4.3s12.3,1.4,17,4.3s8.3,6.6,10.8,11.3c2.5,4.7,3.8,9.8,3.8,15.2c0,0.9,0,1.9-0.1,2.8
	c-0.1,1-0.2,1.7-0.2,2.4h-46.8c0.3,3,1.2,5.6,2.7,7.9s3.4,4,5.8,5.1c2.3,1.2,4.9,1.8,7.6,1.8c3.1,0,6-0.8,8.7-2.3s4.6-3.5,5.6-6
	l13.3,3.7c-1.5,3.1-3.6,5.8-6.3,8.2c-2.7,2.4-6,4.3-9.7,5.6C355.3,356.6,351.2,357.3,346.8,357.3z"/>
<path class="st0" d="M410.3,357.3c-5.2,0-10.1-0.9-14.8-2.5c-4.7-1.7-8.8-4.2-12.1-7.5l5.5-10.1c3.6,2.9,7.2,5.1,10.7,6.5
	s6.9,2.1,10.1,2.1c3,0,5.4-0.5,7.2-1.6s2.7-2.6,2.7-4.7c0-1.5-0.5-2.6-1.5-3.4s-2.5-1.5-4.3-2.1c-1.9-0.6-4.2-1.3-6.9-2.1
	c-4.5-1.5-8.2-2.9-11.2-4.2s-5.3-3.1-6.8-5.2s-2.3-4.8-2.3-8c0-4,1-7.4,3.1-10.2c2-2.9,4.9-5.1,8.6-6.7s8-2.4,12.9-2.4
	c4.3,0,8.4,0.7,12.3,2c3.9,1.4,7.4,3.5,10.5,6.5l-6.2,9.8c-3.1-2.4-6-4.1-8.8-5.3c-2.8-1.1-5.6-1.7-8.4-1.7c-1.6,0-3.1,0.2-4.6,0.6
	c-1.4,0.4-2.6,1-3.5,1.9s-1.3,2.1-1.3,3.7c0,1.5,0.4,2.6,1.2,3.4c0.8,0.8,2,1.5,3.7,2.1s3.7,1.3,6.1,2.1c4.9,1.4,9,2.8,12.3,4.2
	c3.4,1.5,5.9,3.2,7.6,5.3s2.5,5,2.5,8.6c0,5.9-2.2,10.5-6.6,13.9C423.6,355.6,417.7,357.3,410.3,357.3"/>
<path class="st0" d="M481,353.1c-1.3,0.5-2.9,1.2-4.7,1.9s-3.8,1.3-6,1.7c-2.1,0.4-4.3,0.6-6.4,0.6c-2.8,0-5.5-0.5-7.9-1.5
	s-4.3-2.6-5.7-4.8c-1.4-2.2-2.1-5-2.1-8.5V308h-8v-11.9h8v-19.7h15.5v19.7h12.7V308h-12.7v29.2c0.1,2.1,0.7,3.5,1.7,4.5
	c1.1,0.9,2.4,1.4,4,1.4s3.2-0.3,4.7-0.8s2.8-1,3.7-1.4L481,353.1z"/>
<path class="st0" d="M489.1,287.1v-15.4h15.5v15.4H489.1z M489.1,356.1v-60.6h15.5v60.6H489.1L489.1,356.1z"/>
<path class="st0" d="M575,356.1h-15.5v-33.5c0-4.8-0.8-8.3-2.5-10.5s-4-3.3-7.1-3.3c-2.1,0-4.2,0.5-6.3,1.6s-4,2.5-5.7,4.4
	c-1.7,1.8-2.9,4-3.7,6.4v35h-15.5v-60h14v11.2c1.5-2.6,3.5-4.8,5.9-6.6s5.2-3.2,8.3-4.1s6.4-1.4,9.9-1.4c3.8,0,6.9,0.7,9.3,2
	c2.4,1.3,4.3,3.1,5.5,5.4c1.3,2.2,2.2,4.8,2.7,7.6s0.8,5.7,0.8,8.6L575,356.1L575,356.1z"/>
<path class="st0" d="M600.6,326.3c0,3.5,0.7,6.5,2.1,9.3c1.4,2.7,3.3,4.8,5.7,6.3s5.1,2.3,8.1,2.3c2.9,0,5.6-0.8,8-2.3
	s4.3-3.7,5.7-6.3c1.4-2.7,2.1-5.8,2.1-9.3c0-3.4-0.7-6.5-2.1-9.2c-1.4-2.7-3.3-4.8-5.7-6.3s-5-2.3-8-2.3s-5.7,0.8-8.1,2.3
	c-2.4,1.5-4.3,3.7-5.7,6.3C601.3,319.7,600.6,322.8,600.6,326.3 M616.5,357.3c-4.9,0-9.4-0.8-13.3-2.5s-7.3-3.9-10-6.8
	s-4.8-6.2-6.3-10c-1.5-3.7-2.2-7.6-2.2-11.8c0-4.2,0.7-8.1,2.2-11.9c1.5-3.7,3.6-7,6.3-10c2.7-2.9,6.1-5.2,10-6.8
	c3.9-1.6,8.4-2.5,13.3-2.5s9.3,0.8,13.2,2.5s7.2,3.9,10,6.8s4.9,6.2,6.3,10c1.4,3.7,2.1,7.7,2.1,11.9c0,4.1-0.7,8-2.1,11.8
	s-3.5,7.1-6.2,10s-6.1,5.2-10,6.8C625.8,356.5,621.4,357.3,616.5,357.3z"/>
<g>
	<polygon class="st0" points="116,381.2 116,403.4 113.4,403.4 113.4,376.3 115.6,376.3 133.4,398.9 133.4,376.3 136.1,376.3 
		136.1,403.4 133.6,403.4 	"/>
	<path class="st0" d="M168.4,389.9c0,1.5,0.2,2.9,0.7,4.3s1.2,2.6,2.1,3.6s2,1.9,3.2,2.5s2.6,0.9,4.1,0.9c1.6,0,2.9-0.3,4.2-1
		c1.2-0.6,2.3-1.5,3.2-2.6s1.6-2.3,2-3.6c0.5-1.4,0.7-2.7,0.7-4.1c0-1.5-0.2-2.9-0.7-4.2c-0.5-1.4-1.2-2.6-2.1-3.6
		c-0.9-1.1-2-1.9-3.2-2.5s-2.6-0.9-4.1-0.9s-2.9,0.3-4.1,1c-1.2,0.6-2.3,1.5-3.2,2.6s-1.6,2.3-2,3.6
		C168.6,387.1,168.4,388.5,168.4,389.9 M178.4,403.6c-1.9,0-3.6-0.4-5.2-1.1c-1.6-0.8-2.9-1.8-4-3.1c-1.1-1.3-2-2.8-2.6-4.4
		s-0.9-3.3-0.9-5.1c0-1.8,0.3-3.5,1-5.2c0.6-1.6,1.5-3.1,2.7-4.4s2.5-2.3,4.1-3.1s3.2-1.1,5.1-1.1c1.9,0,3.6,0.4,5.2,1.2
		c1.6,0.8,2.9,1.9,4,3.2c1.1,1.3,2,2.8,2.6,4.4s0.9,3.3,0.9,5c0,1.8-0.3,3.5-1,5.2c-0.6,1.6-1.5,3.1-2.7,4.4s-2.5,2.3-4.1,3
		C181.9,403.3,180.2,403.6,178.4,403.6z"/>
	<path class="st0" d="M223.5,391.1h8.9c1.1,0,2-0.3,2.8-0.9s1.4-1.4,1.8-2.3c0.4-1,0.6-2,0.6-3c0-1.1-0.3-2.1-0.8-3s-1.2-1.7-2-2.3
		c-0.8-0.6-1.8-0.9-2.8-0.9h-8.6v12.4H223.5z M220.8,403.4v-27.1h11.5c1.2,0,2.2,0.2,3.2,0.7s1.8,1.1,2.5,2c0.7,0.8,1.3,1.8,1.7,2.8
		s0.6,2,0.6,3.1c0,1.3-0.3,2.5-0.8,3.7c-0.5,1.1-1.2,2.1-2.1,2.9s-2,1.3-3.2,1.6l6.6,10.5h-3l-6.4-10h-8v10L220.8,403.4L220.8,403.4
		z"/>
	<polygon class="st0" points="289.4,378.7 279.7,378.7 279.7,403.4 277,403.4 277,378.7 267.3,378.7 267.3,376.3 289.4,376.3 	"/>
	<polygon class="st0" points="339.4,376.3 339.4,403.4 336.8,403.4 336.8,390.8 320.7,390.8 320.7,403.4 318,403.4 318,376.3 
		320.7,376.3 320.7,388.4 336.8,388.4 336.8,376.3 	"/>
	<path class="st0" d="M398.3,389.6c0-1.7,0.3-3.3,0.9-4.9s1.4-3,2.5-4.4c1.1-1.3,2.5-2.4,4-3.1c1.6-0.8,3.4-1.2,5.5-1.2
		c2.4,0,4.5,0.5,6.2,1.7c1.7,1.1,3,2.5,3.8,4.3l-2.1,1.3c-0.6-1.2-1.3-2.1-2.2-2.9s-1.8-1.2-2.8-1.5s-2-0.5-3-0.5
		c-1.6,0-3.1,0.3-4.3,1c-1.3,0.6-2.3,1.5-3.2,2.6c-0.8,1.1-1.5,2.3-1.9,3.6s-0.6,2.7-0.6,4.1c0,1.5,0.3,2.9,0.8,4.3s1.2,2.6,2.1,3.6
		c0.9,1.1,2,1.9,3.2,2.5s2.6,0.9,4,0.9c1,0,2.1-0.2,3.1-0.5c1.1-0.4,2.1-0.9,3-1.6s1.7-1.7,2.2-2.9l2.2,1.1
		c-0.6,1.4-1.4,2.5-2.6,3.4s-2.5,1.7-3.9,2.1s-2.9,0.7-4.2,0.7c-1.9,0-3.6-0.4-5.1-1.2c-1.6-0.8-2.9-1.9-4-3.2s-2-2.8-2.6-4.5
		C398.6,393,398.3,391.4,398.3,389.6"/>
	<rect x="450.9" y="376.3" class="st0" width="2.7" height="27.1"/>
	<polygon class="st0" points="504.3,378.7 494.6,378.7 494.6,403.4 491.9,403.4 491.9,378.7 482.2,378.7 482.2,376.3 504.3,376.3 	
		"/>
	<polygon class="st0" points="533.1,376.3 541.9,390.9 550.9,376.3 553.8,376.3 543.3,393.4 543.3,403.4 540.6,403.4 540.6,393.3 
		530.1,376.3 	"/>
</g>
<path class="st1" d="M282.9,63.7l25.8,14.5L308.6,26h-26.1L282.9,63.7z M282.4,119.7c6-2.3,14.8-8,20.6-11.4
	c6.4-3.8,13.9-7.3,19.6-11.7c-1.7-2-35.7-21.7-40-23.2L282.4,119.7z M293.4,123.6c12.2,0.5,43.1,1.6,52.7-2.5l0.2-27.5
	C342.4,94,298,119.9,293.4,123.6z M316.7,56.1c4,0,5-1.9,10.5-5.1c6.7-3.8,26-14.1,29.5-17.4c-8.9-7.9-30.3-9.3-39.9-7.1L316.7,56.1
	z M354.2,117.6c10-3.4,22.5-18.6,24.6-31.9L366.3,78c-3.9-2.2-7.8-4.8-12.1-6.6L354.2,117.6z M380.4,76.3
	c-0.5-20.9-6.7-25.9-15.1-37.3c-3.6,1-21.6,11.4-25.1,14.5L380.4,76.3z M259.2,71.2c0,4.4-0.2,6.7,0.7,11.1c1.7,8.3,6,20.4,9.6,28.1
	l2,4.5c0.6,1.5,1.2,2.9,1.9,4.3l7.2,14.6c2.2,4.5,5.4,9.9,7.7,14.6c2.9,5.7,8,14.2,11.3,20l16.6,27.6c0.8,1.4,1.6,2.5,2.4,3.8
	s1.6,2.6,2.5,4l5.3,7.8c0.2-0.7,4.2-6.7,4.8-7.7l19.2-31.5c2.4-3.9,11.7-20.1,13.7-24.2l6.5-12.4c0.4-0.8,0.8-1.3,1.2-2.1l9.3-19.3
	c1.4-2.9,2.6-5.8,3.8-8.8c1.2-3,2.5-5.9,3.5-9.1c3.2-9.8,4.7-13.6,4.7-24.2c0-12.8-3.9-28.7-10.7-39c-2.5-3.7-4.1-6.2-7.2-9.3
	c-0.8-0.8-1-1.4-2-2.2c-1-0.7-1.3-1.3-2.2-2c-0.5-0.4-0.7-0.5-1.1-0.9c-7-6.3-16.9-10.8-26.2-13.1c-15.8-4-32.3-2.2-47,4.1
	c-3.6,1.6-7.3,3.8-10.4,5.9c-3.2,2.2-6.3,4.8-8.8,7.7l-3.8,4.3c-0.7,0.8-1.1,1.5-1.8,2.4c-2.1,2.8-3.9,6-5.3,9.2l-1.9,4.3
	c-1.6,3.9-2.8,8-3.8,12.6c-0.6,3.2-1.3,7.6-1.5,10.9C259.4,68.7,259.2,69.6,259.2,71.2z"/>
<path class="st1" d="M226.1,205.3c0,6.6,0.7,10.9,4.5,16.5c1.3,1.9,4.3,5.8,6,7.1l6,4.8c9.5,6.6,20.7,11.2,31.9,14.1
	c2.4,0.6,4.5,1.2,7,1.7l14.8,2.7c19.8,2.8,40,2.4,59.7,0c4.5-0.5,10.5-1.7,14.8-2.7c2.5-0.5,4.6-1.1,7-1.7c2.2-0.6,4.6-1.3,6.8-2
	c9.4-3.1,18.6-7.1,26.5-13l4.8-4c0.9-0.8,1.3-1.4,2.1-2.3c2-2.4,1.7-1.6,3.8-4.9c5.1-7.6,6.1-18.7,1.3-26.8
	c-8.1-13.4-25.6-19.2-40-22.5c-5.9-1.3-15.3-2.9-21.3-3.4c-2.4-0.2-1.2-0.9-4.3,2.1c-0.6,0.6-1.4,1.1-1.7,2c5.2,0,19.9,3.2,25.3,4.9
	c8.7,2.7,15.2,5.3,22.1,11.2c1.5,1.3,3,3.4,3.9,5.3c3.6,7.1-0.7,13.9-6,18.6c-6.4,5.7-13.9,8.6-21.8,11.5
	c-11.8,4.4-33.7,7.6-47.2,7.6c-2.2,0-3.6,0.2-6,0.2c-2.2,0-3.7-0.2-5.8-0.2c-11.3,0.1-27.6-2.2-37.8-4.8c-3.3-0.8-6.1-1.7-9.3-2.7
	l-4.4-1.6c-1.5-0.6-3-1.1-4.4-1.8s-2.7-1.1-4-2c-0.7-0.4-1.2-0.6-1.9-1.1c-0.8-0.5-1.3-0.8-2-1.2c-2.1-1.2-5.2-3.6-6.9-5.3
	c-13.5-13.5-0.9-25.3,12.2-30.5l9-3.2c4.9-1.6,14.8-3.7,20-4.3c1.7-0.2,3.6-0.6,5.6-0.6c-0.2-0.9-0.9-1.3-1.5-1.9
	c-3.1-3.1-1.3-2.6-7.4-2c-1.8,0.2-4.3,0.5-6,0.9c-12.8,2.2-26.5,4.9-37.5,11.3c-1.5,0.9-2.9,1.6-4.3,2.6c-4.4,3.3-7.3,5.5-10.3,10.6
	C227.9,197.1,226.1,201.4,226.1,205.3"/>
</svg>
